<?xml version="1.0" encoding="utf-8"?>
<!-- Generator: Adobe Illustrator 16.0.0, SVG Export Plug-In . SVG Version: 6.00 Build 0)  -->
<!DOCTYPE svg PUBLIC "-//W3C//DTD SVG 1.1//EN" "http://www.w3.org/Graphics/SVG/1.1/DTD/svg11.dtd">
<svg version="1.1" id="Layer_1" xmlns="http://www.w3.org/2000/svg" xmlns:xlink="http://www.w3.org/1999/xlink" x="0px" y="0px"
	 width="100px" height="100px" viewBox="0 0 100 100" enable-background="new 0 0 100 100" xml:space="preserve">
<path fill="#FFFFFF" d="M75,62.5c-4.416,0-8.475,1.527-11.678,4.081L43.306,54.07c0.593-2.682,0.593-5.459,0-8.141l20.017-12.51
	C66.525,35.973,70.584,37.5,75,37.5c10.355,0,18.75-8.395,18.75-18.75S85.355,0,75,0S56.25,8.395,56.25,18.75
	c0,1.398,0.154,2.76,0.444,4.07L36.678,35.331C33.474,32.777,29.416,31.25,25,31.25C14.645,31.25,6.25,39.645,6.25,50
	S14.645,68.75,25,68.75c4.416,0,8.474-1.527,11.678-4.081L56.694,77.18c-0.296,1.336-0.444,2.701-0.444,4.07
	C56.25,91.605,64.645,100,75,100s18.75-8.395,18.75-18.75S85.355,62.5,75,62.5z"/>
</svg>
